<?xml version="1.0" standalone="no"?>
<!DOCTYPE svg PUBLIC "-//W3C//DTD SVG 20010904//EN"
 "http://www.w3.org/TR/2001/REC-SVG-20010904/DTD/svg10.dtd">
<svg version="1.0" xmlns="http://www.w3.org/2000/svg"
 width="236.000000pt" height="76.000000pt" viewBox="0 0 236.000000 76.000000"
 preserveAspectRatio="xMidYMid meet">

<g transform="translate(0.000000,76.000000) scale(0.100000,-0.100000)"
fill="#000" stroke="none">
<path d="M127 553 c-23 -26 -119 -244 -119 -270 -1 -25 20 -55 34 -51 5 2 33
57 63 123 31 66 65 128 76 138 17 14 41 17 129 17 112 0 140 9 140 46 0 11
-27 14 -153 14 -134 0 -156 -2 -170 -17z"/>
<path d="M533 483 l-83 -4 0 -119 0 -120 118 0 c117 0 119 0 130 25 10 21 18
25 55 25 37 0 46 -4 55 -25 9 -19 19 -25 42 -25 16 0 30 3 30 8 0 4 -22 56
-48 116 -41 95 -51 111 -76 117 -30 8 -23 20 -113 -181 -7 -14 -12 -19 -12
-12 -1 8 -20 12 -62 12 -52 0 -60 2 -57 18 2 13 15 18 56 20 47 3 52 5 52 27
0 22 -5 24 -52 27 -39 2 -53 7 -53 18 0 11 14 16 53 18 50 3 52 4 52 33 0 16
-1 28 -2 27 -2 -1 -40 -4 -85 -5z m231 -109 c10 -26 7 -34 -15 -34 -15 0 -19
4 -15 16 3 9 6 20 6 25 0 15 17 10 24 -7z"/>
<path d="M941 479 c-32 -13 -50 -38 -51 -69 0 -37 11 -49 65 -69 27 -10 51
-23 53 -29 6 -18 -30 -23 -54 -7 -34 22 -74 20 -74 -4 0 -32 47 -61 97 -61 36
0 50 6 74 29 50 50 30 99 -50 121 -45 12 -57 40 -17 40 13 0 26 -5 28 -11 5
-15 58 0 58 16 0 21 -50 55 -79 54 -14 0 -37 -5 -50 -10z"/>
<path d="M1080 480 c0 -3 18 -34 40 -70 33 -54 40 -74 40 -118 l0 -53 33 3
c32 3 32 4 37 63 4 44 13 74 38 113 17 29 32 56 32 60 0 4 -15 6 -33 4 -26 -3
-38 -12 -52 -39 l-19 -35 -20 35 c-17 29 -28 36 -58 39 -21 2 -38 1 -38 -2z"/>
<path d="M1455 479 c-32 -18 -45 -40 -45 -76 0 -35 22 -56 73 -68 32 -8 45
-24 27 -35 -15 -9 -50 -1 -50 11 0 12 -57 11 -65 -1 -21 -33 52 -76 116 -67
52 7 79 31 79 72 0 37 -20 58 -72 74 -21 7 -40 17 -43 22 -10 15 26 23 46 10
20 -11 69 -5 69 9 0 40 -92 74 -135 49z"/>
<path d="M1648 482 l-28 -3 0 -120 0 -119 34 0 c34 0 35 1 38 48 l3 47 40 0
40 0 3 -47 c3 -46 5 -48 33 -48 l29 0 0 120 0 120 -29 0 c-28 0 -30 -3 -33
-42 -3 -43 -3 -43 -45 -46 l-43 -3 0 45 c0 50 -3 53 -42 48z"/>
<path d="M1950 479 c-61 -25 -89 -88 -70 -159 26 -96 179 -110 225 -20 20 38
19 110 -1 139 -30 43 -101 61 -154 40z m84 -65 c9 -8 16 -31 16 -49 0 -61 -62
-89 -94 -43 -22 31 -20 64 4 88 24 24 53 26 74 4z"/>
<path d="M2153 474 c-2 -5 -2 -59 -1 -120 l3 -109 33 -3 c31 -3 32 -2 32 37 0
37 3 41 24 41 32 0 69 14 89 35 22 22 22 88 0 106 -20 18 -174 29 -180 13z
m132 -69 c0 -15 -8 -21 -32 -23 -30 -3 -33 -1 -33 23 0 24 3 26 33 23 24 -2
32 -8 32 -23z"/>
<path d="M180 420 c-41 -41 -28 -50 74 -50 97 0 111 5 118 45 3 19 -3 20 -84
23 -77 2 -90 0 -108 -18z"/>
<path d="M122 284 c-12 -8 -22 -24 -22 -35 0 -17 8 -19 95 -19 83 0 96 2 105
19 24 45 15 51 -73 51 -59 0 -89 -5 -105 -16z"/>
</g>
</svg>
